<?xml version="1.0" encoding="UTF-8"?>
<mxfile host="app.diagrams.net" modified="2024-01-30T14:35:11.011Z" agent="Mozilla/5.0 (Windows NT 10.0; Win64; x64) AppleWebKit/537.36 (KHTML, like Gecko) Chrome/121.0.0.0 Safari/537.36 Edg/121.0.0.0" etag="nkrbDkqhTJ5DB3vU3YpJ" version="23.0.2" type="browser">
  <diagram name="第 1 页" id="I-MssoHvPuf3V8_HrXnz">
    <mxGraphModel dx="2060" dy="1437" grid="1" gridSize="10" guides="1" tooltips="1" connect="1" arrows="1" fold="1" page="1" pageScale="1" pageWidth="827" pageHeight="1169" math="0" shadow="0">
      <root>
        <mxCell id="0" />
        <mxCell id="1" parent="0" />
        <mxCell id="UTNZ1FybqwPMT2Ks913Y-26" value="&lt;font style=&quot;font-size: 28px;&quot; face=&quot;Times New Roman&quot;&gt;4，8，9，10，11&amp;nbsp;&amp;nbsp;&lt;/font&gt;" style="rounded=0;whiteSpace=wrap;html=1;align=center;" parent="1" vertex="1">
          <mxGeometry x="70.25" y="520" width="258.75" height="40" as="geometry" />
        </mxCell>
        <mxCell id="UTNZ1FybqwPMT2Ks913Y-44" value="" style="rounded=0;whiteSpace=wrap;html=1;rotation=90;" parent="1" vertex="1">
          <mxGeometry x="119" y="608.44" width="61.25" height="26.88" as="geometry" />
        </mxCell>
        <mxCell id="UTNZ1FybqwPMT2Ks913Y-45" value="" style="endArrow=none;html=1;rounded=0;" parent="1" edge="1">
          <mxGeometry width="50" height="50" relative="1" as="geometry">
            <mxPoint x="148.6799999999999" y="590" as="sourcePoint" />
            <mxPoint x="149" y="550" as="targetPoint" />
          </mxGeometry>
        </mxCell>
        <mxCell id="UTNZ1FybqwPMT2Ks913Y-46" value="" style="rounded=0;whiteSpace=wrap;html=1;rotation=90;" parent="1" vertex="1">
          <mxGeometry x="79" y="608.44" width="61.25" height="26.88" as="geometry" />
        </mxCell>
        <mxCell id="UTNZ1FybqwPMT2Ks913Y-47" value="" style="endArrow=none;html=1;rounded=0;" parent="1" edge="1">
          <mxGeometry width="50" height="50" relative="1" as="geometry">
            <mxPoint x="108.67999999999984" y="590" as="sourcePoint" />
            <mxPoint x="109" y="550" as="targetPoint" />
          </mxGeometry>
        </mxCell>
        <mxCell id="UTNZ1FybqwPMT2Ks913Y-48" value="" style="rounded=0;whiteSpace=wrap;html=1;rotation=90;" parent="1" vertex="1">
          <mxGeometry x="162" y="608.44" width="61.25" height="26.88" as="geometry" />
        </mxCell>
        <mxCell id="UTNZ1FybqwPMT2Ks913Y-49" value="" style="endArrow=none;html=1;rounded=0;" parent="1" edge="1">
          <mxGeometry width="50" height="50" relative="1" as="geometry">
            <mxPoint x="192" y="590" as="sourcePoint" />
            <mxPoint x="192" y="551" as="targetPoint" />
          </mxGeometry>
        </mxCell>
        <mxCell id="UTNZ1FybqwPMT2Ks913Y-54" value="" style="rounded=0;whiteSpace=wrap;html=1;rotation=90;" parent="1" vertex="1">
          <mxGeometry x="218.25" y="608.44" width="61.25" height="26.88" as="geometry" />
        </mxCell>
        <mxCell id="UTNZ1FybqwPMT2Ks913Y-55" value="" style="endArrow=none;html=1;rounded=0;" parent="1" edge="1">
          <mxGeometry width="50" height="50" relative="1" as="geometry">
            <mxPoint x="248" y="590" as="sourcePoint" />
            <mxPoint x="247.92999999999984" y="552" as="targetPoint" />
          </mxGeometry>
        </mxCell>
        <mxCell id="UTNZ1FybqwPMT2Ks913Y-56" value="" style="rounded=0;whiteSpace=wrap;html=1;rotation=90;" parent="1" vertex="1">
          <mxGeometry x="267.75" y="608.44" width="61.25" height="26.88" as="geometry" />
        </mxCell>
        <mxCell id="UTNZ1FybqwPMT2Ks913Y-57" value="" style="endArrow=none;html=1;rounded=0;" parent="1" edge="1">
          <mxGeometry width="50" height="50" relative="1" as="geometry">
            <mxPoint x="297" y="590" as="sourcePoint" />
            <mxPoint x="297.42999999999984" y="551" as="targetPoint" />
          </mxGeometry>
        </mxCell>
        <mxCell id="UTNZ1FybqwPMT2Ks913Y-60" value="&lt;font face=&quot;Times New Roman&quot;&gt;&lt;span style=&quot;font-size: 28px;&quot;&gt;2，17，19&amp;nbsp;&amp;nbsp;&lt;/span&gt;&lt;/font&gt;" style="rounded=0;whiteSpace=wrap;html=1;align=center;" parent="1" vertex="1">
          <mxGeometry x="369" y="520" width="160" height="40" as="geometry" />
        </mxCell>
        <mxCell id="UTNZ1FybqwPMT2Ks913Y-61" value="" style="rounded=0;whiteSpace=wrap;html=1;rotation=90;" parent="1" vertex="1">
          <mxGeometry x="424.75" y="608.44" width="61.25" height="26.88" as="geometry" />
        </mxCell>
        <mxCell id="UTNZ1FybqwPMT2Ks913Y-62" value="" style="endArrow=none;html=1;rounded=0;" parent="1" edge="1">
          <mxGeometry width="50" height="50" relative="1" as="geometry">
            <mxPoint x="454.42999999999984" y="590" as="sourcePoint" />
            <mxPoint x="454.75" y="550" as="targetPoint" />
          </mxGeometry>
        </mxCell>
        <mxCell id="UTNZ1FybqwPMT2Ks913Y-63" value="" style="rounded=0;whiteSpace=wrap;html=1;rotation=90;" parent="1" vertex="1">
          <mxGeometry x="369" y="608.44" width="61.25" height="26.88" as="geometry" />
        </mxCell>
        <mxCell id="UTNZ1FybqwPMT2Ks913Y-64" value="" style="endArrow=none;html=1;rounded=0;" parent="1" edge="1">
          <mxGeometry width="50" height="50" relative="1" as="geometry">
            <mxPoint x="398.67999999999984" y="590" as="sourcePoint" />
            <mxPoint x="399" y="550" as="targetPoint" />
          </mxGeometry>
        </mxCell>
        <mxCell id="UTNZ1FybqwPMT2Ks913Y-65" value="" style="rounded=0;whiteSpace=wrap;html=1;rotation=90;" parent="1" vertex="1">
          <mxGeometry x="477.75" y="608.44" width="61.25" height="26.88" as="geometry" />
        </mxCell>
        <mxCell id="UTNZ1FybqwPMT2Ks913Y-66" value="" style="endArrow=none;html=1;rounded=0;" parent="1" edge="1">
          <mxGeometry width="50" height="50" relative="1" as="geometry">
            <mxPoint x="507.75" y="590" as="sourcePoint" />
            <mxPoint x="507.75" y="551" as="targetPoint" />
          </mxGeometry>
        </mxCell>
        <mxCell id="UTNZ1FybqwPMT2Ks913Y-85" value="&lt;font face=&quot;Times New Roman&quot;&gt;&lt;span style=&quot;font-size: 28px;&quot;&gt;2，23，28&amp;nbsp;&amp;nbsp;&lt;/span&gt;&lt;/font&gt;" style="rounded=0;whiteSpace=wrap;html=1;align=center;" parent="1" vertex="1">
          <mxGeometry x="569" y="520" width="160" height="40" as="geometry" />
        </mxCell>
        <mxCell id="UTNZ1FybqwPMT2Ks913Y-86" value="" style="rounded=0;whiteSpace=wrap;html=1;rotation=90;" parent="1" vertex="1">
          <mxGeometry x="625.75" y="608.44" width="61.25" height="26.88" as="geometry" />
        </mxCell>
        <mxCell id="UTNZ1FybqwPMT2Ks913Y-87" value="" style="endArrow=none;html=1;rounded=0;" parent="1" edge="1">
          <mxGeometry width="50" height="50" relative="1" as="geometry">
            <mxPoint x="655.4299999999998" y="590" as="sourcePoint" />
            <mxPoint x="655.75" y="550" as="targetPoint" />
          </mxGeometry>
        </mxCell>
        <mxCell id="UTNZ1FybqwPMT2Ks913Y-88" value="" style="rounded=0;whiteSpace=wrap;html=1;rotation=90;" parent="1" vertex="1">
          <mxGeometry x="569" y="608.44" width="61.25" height="26.88" as="geometry" />
        </mxCell>
        <mxCell id="UTNZ1FybqwPMT2Ks913Y-89" value="" style="endArrow=none;html=1;rounded=0;" parent="1" edge="1">
          <mxGeometry width="50" height="50" relative="1" as="geometry">
            <mxPoint x="598.6799999999998" y="590" as="sourcePoint" />
            <mxPoint x="599" y="550" as="targetPoint" />
          </mxGeometry>
        </mxCell>
        <mxCell id="UTNZ1FybqwPMT2Ks913Y-90" value="" style="rounded=0;whiteSpace=wrap;html=1;rotation=90;" parent="1" vertex="1">
          <mxGeometry x="677.75" y="608.44" width="61.25" height="26.88" as="geometry" />
        </mxCell>
        <mxCell id="UTNZ1FybqwPMT2Ks913Y-91" value="" style="endArrow=none;html=1;rounded=0;" parent="1" edge="1">
          <mxGeometry width="50" height="50" relative="1" as="geometry">
            <mxPoint x="707.75" y="590" as="sourcePoint" />
            <mxPoint x="707.75" y="551" as="targetPoint" />
          </mxGeometry>
        </mxCell>
        <mxCell id="6TMIYWHLfrdWxJFRpfqK-1" value="&lt;font face=&quot;Times New Roman&quot;&gt;&lt;span style=&quot;font-size: 28px;&quot;&gt;2，31，32&amp;nbsp;&amp;nbsp;&lt;/span&gt;&lt;/font&gt;" style="rounded=0;whiteSpace=wrap;html=1;align=center;" parent="1" vertex="1">
          <mxGeometry x="775" y="520" width="160" height="40" as="geometry" />
        </mxCell>
        <mxCell id="6TMIYWHLfrdWxJFRpfqK-2" value="" style="rounded=0;whiteSpace=wrap;html=1;rotation=90;" parent="1" vertex="1">
          <mxGeometry x="831.75" y="608.44" width="61.25" height="26.88" as="geometry" />
        </mxCell>
        <mxCell id="6TMIYWHLfrdWxJFRpfqK-3" value="" style="endArrow=none;html=1;rounded=0;" parent="1" edge="1">
          <mxGeometry width="50" height="50" relative="1" as="geometry">
            <mxPoint x="861.4299999999998" y="590" as="sourcePoint" />
            <mxPoint x="861.75" y="550" as="targetPoint" />
          </mxGeometry>
        </mxCell>
        <mxCell id="6TMIYWHLfrdWxJFRpfqK-4" value="" style="rounded=0;whiteSpace=wrap;html=1;rotation=90;" parent="1" vertex="1">
          <mxGeometry x="775" y="608.44" width="61.25" height="26.88" as="geometry" />
        </mxCell>
        <mxCell id="6TMIYWHLfrdWxJFRpfqK-5" value="" style="endArrow=none;html=1;rounded=0;" parent="1" edge="1">
          <mxGeometry width="50" height="50" relative="1" as="geometry">
            <mxPoint x="804.6799999999998" y="590" as="sourcePoint" />
            <mxPoint x="805" y="550" as="targetPoint" />
          </mxGeometry>
        </mxCell>
        <mxCell id="6TMIYWHLfrdWxJFRpfqK-6" value="" style="rounded=0;whiteSpace=wrap;html=1;rotation=90;" parent="1" vertex="1">
          <mxGeometry x="883.75" y="608.44" width="61.25" height="26.88" as="geometry" />
        </mxCell>
        <mxCell id="6TMIYWHLfrdWxJFRpfqK-7" value="" style="endArrow=none;html=1;rounded=0;" parent="1" edge="1">
          <mxGeometry width="50" height="50" relative="1" as="geometry">
            <mxPoint x="913.75" y="590" as="sourcePoint" />
            <mxPoint x="913.75" y="551" as="targetPoint" />
          </mxGeometry>
        </mxCell>
        <mxCell id="6TMIYWHLfrdWxJFRpfqK-8" value="&lt;font face=&quot;Times New Roman&quot;&gt;&lt;span style=&quot;font-size: 28px;&quot;&gt;3，39，40，41&amp;nbsp;&amp;nbsp;&lt;/span&gt;&lt;/font&gt;" style="rounded=0;whiteSpace=wrap;html=1;align=center;" parent="1" vertex="1">
          <mxGeometry x="975" y="520" width="220" height="40" as="geometry" />
        </mxCell>
        <mxCell id="6TMIYWHLfrdWxJFRpfqK-9" value="" style="rounded=0;whiteSpace=wrap;html=1;rotation=90;" parent="1" vertex="1">
          <mxGeometry x="1033.75" y="608.44" width="61.25" height="26.88" as="geometry" />
        </mxCell>
        <mxCell id="6TMIYWHLfrdWxJFRpfqK-10" value="" style="endArrow=none;html=1;rounded=0;" parent="1" edge="1">
          <mxGeometry width="50" height="50" relative="1" as="geometry">
            <mxPoint x="1063.4299999999998" y="590" as="sourcePoint" />
            <mxPoint x="1063.75" y="550" as="targetPoint" />
          </mxGeometry>
        </mxCell>
        <mxCell id="6TMIYWHLfrdWxJFRpfqK-11" value="" style="rounded=0;whiteSpace=wrap;html=1;rotation=90;" parent="1" vertex="1">
          <mxGeometry x="977.75" y="608.44" width="61.25" height="26.88" as="geometry" />
        </mxCell>
        <mxCell id="6TMIYWHLfrdWxJFRpfqK-12" value="" style="endArrow=none;html=1;rounded=0;" parent="1" edge="1">
          <mxGeometry width="50" height="50" relative="1" as="geometry">
            <mxPoint x="1007.4299999999998" y="590" as="sourcePoint" />
            <mxPoint x="1007.75" y="550" as="targetPoint" />
          </mxGeometry>
        </mxCell>
        <mxCell id="6TMIYWHLfrdWxJFRpfqK-13" value="" style="rounded=0;whiteSpace=wrap;html=1;rotation=90;" parent="1" vertex="1">
          <mxGeometry x="1087.75" y="608.44" width="61.25" height="26.88" as="geometry" />
        </mxCell>
        <mxCell id="6TMIYWHLfrdWxJFRpfqK-14" value="" style="endArrow=none;html=1;rounded=0;" parent="1" edge="1">
          <mxGeometry width="50" height="50" relative="1" as="geometry">
            <mxPoint x="1117.75" y="590" as="sourcePoint" />
            <mxPoint x="1117.75" y="551" as="targetPoint" />
          </mxGeometry>
        </mxCell>
        <mxCell id="6TMIYWHLfrdWxJFRpfqK-15" value="" style="rounded=0;whiteSpace=wrap;html=1;rotation=90;" parent="1" vertex="1">
          <mxGeometry x="1144" y="608.44" width="61.25" height="26.88" as="geometry" />
        </mxCell>
        <mxCell id="6TMIYWHLfrdWxJFRpfqK-16" value="" style="endArrow=none;html=1;rounded=0;" parent="1" edge="1">
          <mxGeometry width="50" height="50" relative="1" as="geometry">
            <mxPoint x="1173.75" y="590" as="sourcePoint" />
            <mxPoint x="1173.6799999999998" y="552" as="targetPoint" />
          </mxGeometry>
        </mxCell>
        <mxCell id="6TMIYWHLfrdWxJFRpfqK-31" value="&lt;font style=&quot;font-size: 28px;&quot; face=&quot;Times New Roman&quot;&gt;4，45，48，50，55&amp;nbsp;&amp;nbsp;&lt;/font&gt;" style="rounded=0;whiteSpace=wrap;html=1;align=center;" parent="1" vertex="1">
          <mxGeometry x="1234" y="520" width="275" height="40" as="geometry" />
        </mxCell>
        <mxCell id="6TMIYWHLfrdWxJFRpfqK-32" value="" style="rounded=0;whiteSpace=wrap;html=1;rotation=90;" parent="1" vertex="1">
          <mxGeometry x="1292.75" y="608.44" width="61.25" height="26.88" as="geometry" />
        </mxCell>
        <mxCell id="6TMIYWHLfrdWxJFRpfqK-33" value="" style="endArrow=none;html=1;rounded=0;" parent="1" edge="1">
          <mxGeometry width="50" height="50" relative="1" as="geometry">
            <mxPoint x="1322.4299999999998" y="590" as="sourcePoint" />
            <mxPoint x="1322.75" y="550" as="targetPoint" />
          </mxGeometry>
        </mxCell>
        <mxCell id="6TMIYWHLfrdWxJFRpfqK-34" value="" style="rounded=0;whiteSpace=wrap;html=1;rotation=90;" parent="1" vertex="1">
          <mxGeometry x="1236.75" y="608.44" width="61.25" height="26.88" as="geometry" />
        </mxCell>
        <mxCell id="6TMIYWHLfrdWxJFRpfqK-35" value="" style="endArrow=none;html=1;rounded=0;" parent="1" edge="1">
          <mxGeometry width="50" height="50" relative="1" as="geometry">
            <mxPoint x="1266.4299999999998" y="590" as="sourcePoint" />
            <mxPoint x="1266.75" y="550" as="targetPoint" />
          </mxGeometry>
        </mxCell>
        <mxCell id="6TMIYWHLfrdWxJFRpfqK-36" value="" style="rounded=0;whiteSpace=wrap;html=1;rotation=90;" parent="1" vertex="1">
          <mxGeometry x="1346.75" y="608.44" width="61.25" height="26.88" as="geometry" />
        </mxCell>
        <mxCell id="6TMIYWHLfrdWxJFRpfqK-37" value="" style="endArrow=none;html=1;rounded=0;" parent="1" edge="1">
          <mxGeometry width="50" height="50" relative="1" as="geometry">
            <mxPoint x="1376.75" y="590" as="sourcePoint" />
            <mxPoint x="1376.75" y="551" as="targetPoint" />
          </mxGeometry>
        </mxCell>
        <mxCell id="6TMIYWHLfrdWxJFRpfqK-38" value="" style="rounded=0;whiteSpace=wrap;html=1;rotation=90;" parent="1" vertex="1">
          <mxGeometry x="1403" y="608.44" width="61.25" height="26.88" as="geometry" />
        </mxCell>
        <mxCell id="6TMIYWHLfrdWxJFRpfqK-39" value="" style="endArrow=none;html=1;rounded=0;" parent="1" edge="1">
          <mxGeometry width="50" height="50" relative="1" as="geometry">
            <mxPoint x="1432.75" y="590" as="sourcePoint" />
            <mxPoint x="1432.6799999999998" y="552" as="targetPoint" />
          </mxGeometry>
        </mxCell>
        <mxCell id="6TMIYWHLfrdWxJFRpfqK-40" value="" style="rounded=0;whiteSpace=wrap;html=1;rotation=90;" parent="1" vertex="1">
          <mxGeometry x="1457.5" y="608.44" width="61.25" height="26.88" as="geometry" />
        </mxCell>
        <mxCell id="6TMIYWHLfrdWxJFRpfqK-41" value="" style="endArrow=none;html=1;rounded=0;" parent="1" edge="1">
          <mxGeometry width="50" height="50" relative="1" as="geometry">
            <mxPoint x="1486.75" y="590" as="sourcePoint" />
            <mxPoint x="1487.1799999999998" y="551" as="targetPoint" />
          </mxGeometry>
        </mxCell>
        <mxCell id="Eigj-CLtH65Jff_6uGXR-21" value="&lt;font face=&quot;Times New Roman&quot;&gt;&lt;span style=&quot;font-size: 28px;&quot;&gt;2，15，21&amp;nbsp;&amp;nbsp;&lt;/span&gt;&lt;/font&gt;" style="rounded=0;whiteSpace=wrap;html=1;align=center;" vertex="1" parent="1">
          <mxGeometry x="369" y="390" width="160" height="40" as="geometry" />
        </mxCell>
        <mxCell id="Eigj-CLtH65Jff_6uGXR-28" value="&lt;font face=&quot;Times New Roman&quot;&gt;&lt;span style=&quot;font-size: 28px;&quot;&gt;2，38，42&amp;nbsp;&amp;nbsp;&lt;/span&gt;&lt;/font&gt;" style="rounded=0;whiteSpace=wrap;html=1;align=center;" vertex="1" parent="1">
          <mxGeometry x="1015" y="390" width="160" height="40" as="geometry" />
        </mxCell>
        <mxCell id="Eigj-CLtH65Jff_6uGXR-29" value="" style="endArrow=none;html=1;rounded=0;exitX=0.5;exitY=0;exitDx=0;exitDy=0;" edge="1" parent="1">
          <mxGeometry width="50" height="50" relative="1" as="geometry">
            <mxPoint x="196.625" y="520" as="sourcePoint" />
            <mxPoint x="399" y="420" as="targetPoint" />
          </mxGeometry>
        </mxCell>
        <mxCell id="Eigj-CLtH65Jff_6uGXR-30" value="" style="endArrow=none;html=1;rounded=0;exitX=0.5;exitY=0;exitDx=0;exitDy=0;" edge="1" parent="1">
          <mxGeometry width="50" height="50" relative="1" as="geometry">
            <mxPoint x="453" y="520" as="sourcePoint" />
            <mxPoint x="453" y="420" as="targetPoint" />
          </mxGeometry>
        </mxCell>
        <mxCell id="Eigj-CLtH65Jff_6uGXR-32" value="" style="endArrow=none;html=1;rounded=0;entryX=0.938;entryY=0.75;entryDx=0;entryDy=0;entryPerimeter=0;exitX=0.5;exitY=0;exitDx=0;exitDy=0;" edge="1" parent="1" source="UTNZ1FybqwPMT2Ks913Y-85" target="Eigj-CLtH65Jff_6uGXR-21">
          <mxGeometry width="50" height="50" relative="1" as="geometry">
            <mxPoint x="499" y="550" as="sourcePoint" />
            <mxPoint x="549" y="500" as="targetPoint" />
          </mxGeometry>
        </mxCell>
        <mxCell id="Eigj-CLtH65Jff_6uGXR-33" value="" style="endArrow=none;html=1;rounded=0;exitX=0.5;exitY=0;exitDx=0;exitDy=0;" edge="1" parent="1" source="6TMIYWHLfrdWxJFRpfqK-1">
          <mxGeometry width="50" height="50" relative="1" as="geometry">
            <mxPoint x="985" y="610" as="sourcePoint" />
            <mxPoint x="1050" y="420" as="targetPoint" />
          </mxGeometry>
        </mxCell>
        <mxCell id="Eigj-CLtH65Jff_6uGXR-34" value="" style="endArrow=none;html=1;rounded=0;exitX=0.58;exitY=-0.032;exitDx=0;exitDy=0;exitPerimeter=0;" edge="1" parent="1" source="6TMIYWHLfrdWxJFRpfqK-8">
          <mxGeometry width="50" height="50" relative="1" as="geometry">
            <mxPoint x="1103" y="508.96000000000004" as="sourcePoint" />
            <mxPoint x="1102" y="419" as="targetPoint" />
          </mxGeometry>
        </mxCell>
        <mxCell id="Eigj-CLtH65Jff_6uGXR-35" value="" style="endArrow=none;html=1;rounded=0;exitX=0.5;exitY=0;exitDx=0;exitDy=0;" edge="1" parent="1" source="6TMIYWHLfrdWxJFRpfqK-31">
          <mxGeometry width="50" height="50" relative="1" as="geometry">
            <mxPoint x="1111" y="470" as="sourcePoint" />
            <mxPoint x="1161" y="420" as="targetPoint" />
          </mxGeometry>
        </mxCell>
        <mxCell id="Eigj-CLtH65Jff_6uGXR-36" value="&lt;font face=&quot;Times New Roman&quot;&gt;&lt;span style=&quot;font-size: 29px;&quot;&gt;1，30&lt;/span&gt;&lt;/font&gt;" style="rounded=0;whiteSpace=wrap;html=1;align=center;" vertex="1" parent="1">
          <mxGeometry x="719" y="280" width="160" height="40" as="geometry" />
        </mxCell>
        <mxCell id="Eigj-CLtH65Jff_6uGXR-40" value="" style="endArrow=none;html=1;rounded=0;exitX=0.5;exitY=0;exitDx=0;exitDy=0;" edge="1" parent="1" source="Eigj-CLtH65Jff_6uGXR-21">
          <mxGeometry width="50" height="50" relative="1" as="geometry">
            <mxPoint x="942" y="530" as="sourcePoint" />
            <mxPoint x="719" y="320" as="targetPoint" />
          </mxGeometry>
        </mxCell>
        <mxCell id="Eigj-CLtH65Jff_6uGXR-41" value="" style="endArrow=none;html=1;rounded=0;entryX=1;entryY=1;entryDx=0;entryDy=0;exitX=0.5;exitY=0;exitDx=0;exitDy=0;" edge="1" parent="1" source="Eigj-CLtH65Jff_6uGXR-28" target="Eigj-CLtH65Jff_6uGXR-36">
          <mxGeometry width="50" height="50" relative="1" as="geometry">
            <mxPoint x="1029" y="530" as="sourcePoint" />
            <mxPoint x="1079" y="480" as="targetPoint" />
          </mxGeometry>
        </mxCell>
        <mxCell id="Eigj-CLtH65Jff_6uGXR-42" value="&lt;font style=&quot;font-size: 44px;&quot; face=&quot;Times New Roman&quot;&gt;m=5&lt;/font&gt;" style="text;html=1;strokeColor=none;fillColor=none;align=center;verticalAlign=middle;whiteSpace=wrap;rounded=0;" vertex="1" parent="1">
          <mxGeometry x="1130" y="262" width="160" height="70" as="geometry" />
        </mxCell>
      </root>
    </mxGraphModel>
  </diagram>
</mxfile>
